<?xml version="1.0" encoding="utf-8"?>
<!-- Generator: Adobe Illustrator 17.0.1, SVG Export Plug-In . SVG Version: 6.00 Build 0)  -->
<!DOCTYPE svg PUBLIC "-//W3C//DTD SVG 1.1//EN" "http://www.w3.org/Graphics/SVG/1.1/DTD/svg11.dtd">
<svg version="1.1" id="Слой_1" xmlns="http://www.w3.org/2000/svg" xmlns:xlink="http://www.w3.org/1999/xlink" x="0px" y="0px"
	 width="78.199px" height="78.199px" viewBox="0 0 78.199 78.199" enable-background="new 0 0 78.199 78.199" xml:space="preserve">
<g>
	<path fill="#00BFF3" d="M50.727,38.977c0,6.191-5.18,11.211-11.571,11.211c-6.39,0-11.574-5.02-11.574-11.211
		c0-6.196,5.184-11.215,11.574-11.215C45.547,27.762,50.727,32.781,50.727,38.977L50.727,38.977z"/>
	<path fill="#00BFF3" d="M57.066,39.602c0,9.586-8.019,17.355-17.91,17.355c-9.894,0-17.914-7.769-17.914-17.355
		c0-1.719,0.262-3.379,0.742-4.946h-5.293V59c0,1.258,1.032,2.289,2.289,2.289h40.129c1.258,0,2.289-1.031,2.289-2.289V34.656h-5.07
		C56.805,36.223,57.066,37.883,57.066,39.602L57.066,39.602z"/>
	<path fill="#00BFF3" d="M52.266,28.09h6.511c1.43,0,2.594-1.168,2.594-2.594v-6.211c0-1.43-1.164-2.594-2.594-2.594h-6.511
		c-1.43,0-2.594,1.164-2.594,2.594v6.211C49.672,26.922,50.836,28.09,52.266,28.09L52.266,28.09z"/>
	<path fill="#00BFF3" d="M39.102,0C17.504,0,0,17.504,0,39.102c0,21.593,17.504,39.097,39.102,39.097
		c21.593,0,39.097-17.504,39.097-39.097C78.199,17.504,60.695,0,39.102,0L39.102,0z M60.516,67.91H17.684
		c-4.071,0-7.395-3.008-7.395-7.394V17.684c0-4.383,3.324-7.395,7.395-7.395h42.832c4.07,0,7.394,3.012,7.394,7.395v42.832
		C67.91,64.902,64.586,67.91,60.516,67.91L60.516,67.91z"/>
</g>
</svg>
