<?xml version="1.0" encoding="utf-8"?>
<!-- Generator: Adobe Illustrator 17.0.1, SVG Export Plug-In . SVG Version: 6.00 Build 0)  -->
<!DOCTYPE svg PUBLIC "-//W3C//DTD SVG 1.1//EN" "http://www.w3.org/Graphics/SVG/1.1/DTD/svg11.dtd">
<svg version="1.1" id="Слой_1" xmlns="http://www.w3.org/2000/svg" xmlns:xlink="http://www.w3.org/1999/xlink" x="0px" y="0px"
	 width="78.199px" height="78.199px" viewBox="0 0 78.199 78.199" enable-background="new 0 0 78.199 78.199" xml:space="preserve">
<g>
	<path fill="#18BEF0" stroke="#FFFFFF" stroke-miterlimit="10" d="M39.102,0C17.504,0,0,17.504,0,39.102
		c0,21.593,17.504,39.097,39.102,39.097c21.593,0,39.097-17.504,39.097-39.097C78.199,17.504,60.695,0,39.102,0L39.102,0z
		 M54.016,19.91l-5.407,0.004c-4.242,0-5.062,2.016-5.062,4.973v6.519H53.66l-0.004,10.215H43.547v26.203H33V41.617h-8.816V31.406
		H33v-7.531c0-8.738,5.34-13.5,13.137-13.5l7.883,0.012v9.523H54.016z M54.016,19.91"/>
</g>
</svg>
