<?xml version="1.0" encoding="utf-8"?>
<!-- Generator: Adobe Illustrator 17.0.1, SVG Export Plug-In . SVG Version: 6.00 Build 0)  -->
<!DOCTYPE svg PUBLIC "-//W3C//DTD SVG 1.1//EN" "http://www.w3.org/Graphics/SVG/1.1/DTD/svg11.dtd">
<svg version="1.1" id="Слой_1" xmlns="http://www.w3.org/2000/svg" xmlns:xlink="http://www.w3.org/1999/xlink" x="0px" y="0px"
	 width="78.199px" height="78.199px" viewBox="0 0 78.199 78.199" enable-background="new 0 0 78.199 78.199" xml:space="preserve">
<g>
	<path fill="#FFFFFF" stroke="#FFFFFF" stroke-miterlimit="10" d="M40.582,26.938c0-5.422-3.23-13.852-9.461-13.852
		c-1.957,0-4.055,0.98-5.262,2.484c-1.277,1.586-1.648,3.61-1.648,5.575c0,5.039,2.926,13.39,9.391,13.39
		c1.875,0,3.894-0.898,5.105-2.101C40.434,30.695,40.582,28.293,40.582,26.938L40.582,26.938z M40.582,26.938"/>
	<path fill="#FFFFFF" stroke="#FFFFFF" stroke-miterlimit="10" d="M36.527,46.73c-0.601-0.074-0.976-0.074-1.726-0.074
		c-0.676,0-4.735,0.149-7.887,1.207c-1.652,0.602-6.457,2.407-6.457,7.75c0,5.348,5.184,9.188,13.219,9.188
		c7.211,0,11.043-3.469,11.043-8.129C44.719,52.824,42.238,50.797,36.527,46.73L36.527,46.73z M36.527,46.73"/>
	<path fill="#FFFFFF" stroke="#FFFFFF" stroke-miterlimit="10" d="M39.102,0C17.504,0,0,17.504,0,39.102
		c0,21.593,17.504,39.097,39.102,39.097c21.593,0,39.097-17.504,39.097-39.097C78.199,17.504,60.695,0,39.102,0L39.102,0z
		 M29.992,67.957c-10.894,0-16.148-5.191-16.148-10.766c0-2.707,1.351-6.543,5.781-9.179c4.656-2.86,10.969-3.235,14.348-3.469
		c-1.055-1.352-2.25-2.781-2.25-5.113c0-1.278,0.375-2.032,0.746-2.934c-0.828,0.074-1.649,0.149-2.403,0.149
		c-7.957,0-12.464-5.95-12.464-11.821c0-3.457,1.574-7.297,4.804-10.082c4.285-3.539,10.137-4.5,14.196-4.5h14.796l-4.882,3.071
		h-4.653c1.727,1.429,5.328,4.437,5.328,10.16c0,5.566-3.152,8.207-6.304,10.691c-0.981,0.977-2.106,2.027-2.106,3.688
		c0,1.652,1.125,2.554,1.949,3.238l2.708,2.101c3.304,2.786,6.308,5.344,6.308,10.543C49.746,60.809,42.906,67.957,29.992,67.957
		L29.992,67.957z M62.402,38.18v7.574h-3.714V38.18h-7.516v-3.758h7.516v-7.524h3.714v7.524h7.555v3.758H62.402z M62.402,38.18"/>
</g>
</svg>
