<?xml version="1.0" encoding="utf-8"?>
<!-- Generator: Adobe Illustrator 17.0.1, SVG Export Plug-In . SVG Version: 6.00 Build 0)  -->
<!DOCTYPE svg PUBLIC "-//W3C//DTD SVG 1.1//EN" "http://www.w3.org/Graphics/SVG/1.1/DTD/svg11.dtd">
<svg version="1.1" id="Шар_1" xmlns="http://www.w3.org/2000/svg" xmlns:xlink="http://www.w3.org/1999/xlink" x="0px" y="0px"
	 width="237.922px" height="57.724px" viewBox="0 0 237.922 57.724" enable-background="new 0 0 237.922 57.724"
	 xml:space="preserve">
<path fill="#FFFFFF" d="M42.131,41.312c0,2.613-0.518,4.94-1.551,6.98c-1.035,2.041-2.463,3.756-4.287,5.145
	c-1.824,1.388-4.015,2.449-6.573,3.184c-2.559,0.735-5.335,1.103-8.328,1.103c-3.974,0-7.715-0.558-11.227-1.674
	C6.654,54.936,3.266,53.043,0,50.375l5.226-6.776c2.449,1.796,5.048,3.198,7.797,4.205c2.748,1.008,5.511,1.511,8.287,1.511
	c3.701,0,6.463-0.746,8.288-2.242c1.823-1.494,2.735-3.382,2.735-5.666c0-1.574-0.367-2.852-1.102-3.83
	c-0.735-0.977-1.729-1.793-2.98-2.445c-1.252-0.651-2.681-1.168-4.286-1.548c-1.606-0.38-3.28-0.788-5.021-1.224
	c-2.178-0.488-4.287-1.113-6.328-1.874s-3.837-1.753-5.389-2.976c-1.551-1.222-2.804-2.717-3.756-4.482
	c-0.953-1.766-1.429-3.927-1.429-6.48c0-2.391,0.435-4.594,1.306-6.603c0.87-2.011,2.123-3.75,3.756-5.217s3.592-2.621,5.878-3.463
	C15.268,0.422,17.826,0,20.657,0c3.374,0,6.708,0.338,10.001,1.011c3.293,0.674,6.437,1.955,9.431,3.841l-4.164,7.64
	c-2.504-1.523-4.995-2.584-7.471-3.184C25.976,8.71,23.541,8.41,21.146,8.41c-1.307,0-2.545,0.164-3.715,0.49
	c-1.171,0.326-2.205,0.816-3.103,1.47c-0.898,0.653-1.62,1.483-2.163,2.49c-0.544,1.008-0.816,2.192-0.816,3.552
	c0,1.361,0.354,2.504,1.062,3.43c0.706,0.926,1.645,1.701,2.817,2.326c1.17,0.627,2.503,1.143,4.001,1.551
	c1.497,0.408,3.062,0.776,4.695,1.104c2.667,0.6,5.116,1.306,7.348,2.122c2.232,0.817,4.15,1.865,5.756,3.144
	c1.605,1.279,2.858,2.816,3.756,4.613C41.681,36.496,42.131,38.699,42.131,41.312z"/>
<path fill="#FFFFFF" d="M56.99,16.818v25.311c0,2.723,0.629,4.627,1.887,5.715c1.258,1.09,2.762,1.634,4.513,1.634
	c3.008,0,6.617-1.47,10.828-4.409v-28.25l8.655,4.137v36.279h-7.846l-0.809-3.92c-3.157,1.906-5.702,3.117-7.634,3.634
	c-1.933,0.517-3.58,0.775-4.94,0.775c-4.409,0-7.729-1.347-9.961-4.042c-2.233-2.693-3.348-6.299-3.348-10.818V16.819L56.99,16.818
	L56.99,16.818z"/>
<path fill="#FFFFFF" d="M100.002,57.234V32.068c0-2.768-0.6-4.684-1.796-5.742c-1.198-1.059-2.694-1.588-4.491-1.588
	c-1.47,0-3.13,0.354-4.98,1.059c-1.851,0.707-3.811,1.711-5.878,3.014v28.424h-7.622l-1.033-4.06V16.82h7.596h0.242l0.817,4.045
	c1.627-0.988,3.106-1.785,4.436-2.391c1.33-0.604,2.522-1.071,3.581-1.402c1.058-0.328,2.007-0.535,2.849-0.618
	c0.841-0.081,1.614-0.124,2.319-0.124c4.233,0,7.393,1.279,9.483,3.838c2.088,2.559,3.133,6.097,3.133,10.613v26.455h-8.656V57.234z
	"/>
<path fill="#FFFFFF" d="M124.838,4.571v52.663h-3.919V4.571h-17.636V0.978h39.027v3.593H124.838z"/>
<path fill="#FFFFFF" d="M171.054,43.109c0,4.572-1.447,8.151-4.34,10.736c-2.893,2.586-6.744,3.878-11.545,3.878
	c-2.348,0-4.49-0.341-6.426-1.021c-1.939-0.68-3.603-1.66-4.994-2.94c-1.392-1.278-2.47-2.803-3.234-4.572
	c-0.764-1.768-1.146-3.769-1.146-6.001V30.942c0-2.176,0.422-4.15,1.268-5.92c0.846-1.768,1.991-3.266,3.438-4.49
	c1.447-1.225,3.125-2.176,5.035-2.858c1.91-0.68,3.955-1.021,6.141-1.021c2.236,0,4.324,0.342,6.265,1.021
	c1.938,0.682,3.616,1.633,5.034,2.858c1.42,1.225,2.523,2.723,3.315,4.49c0.791,1.769,1.189,3.744,1.189,5.92V43.109z
	 M167.379,32.033c0-2.182-0.367-4.037-1.102-5.566c-0.734-1.526-1.674-2.768-2.816-3.724c-1.143-0.954-2.439-1.65-3.883-2.088
	c-1.443-0.435-2.871-0.654-4.287-0.654c-1.469,0-2.94,0.219-4.408,0.654c-1.469,0.438-2.775,1.134-3.92,2.088
	c-1.142,0.955-2.082,2.197-2.816,3.724c-0.734,1.528-1.102,3.384-1.102,5.566v10.23c0,2.236,0.339,4.12,1.02,5.647
	c0.681,1.529,1.577,2.77,2.694,3.725c1.115,0.955,2.408,1.65,3.879,2.087c1.469,0.437,3.02,0.654,4.652,0.654
	c1.635,0,3.172-0.23,4.614-0.694c1.444-0.465,2.726-1.188,3.841-2.17c1.115-0.982,2-2.236,2.654-3.764
	c0.652-1.529,0.979-3.357,0.979-5.484L167.379,32.033L167.379,32.033z"/>
<path fill="#FFFFFF" d="M206.965,57.234l-0.64-5.553c-1.852,1.143-3.498,2.096-4.939,2.857c-1.443,0.764-2.749,1.389-3.919,1.879
	c-1.172,0.489-2.246,0.828-3.225,1.02c-0.979,0.191-1.933,0.286-2.858,0.286c-4.138,0-7.321-1.129-9.553-3.388
	s-3.348-5.701-3.348-10.329V17.144h3.674V43.05c0,3.966,0.844,6.805,2.531,8.516c1.687,1.71,4.027,2.564,7.021,2.564
	c1.96,0,4.218-0.582,6.777-1.751c2.558-1.167,5.17-2.702,7.838-4.603V17.144h3.674v40.09L206.965,57.234L206.965,57.234z"/>
<path fill="#FFFFFF" d="M237.922,20.9c-3.647,0.382-6.668,1.172-9.063,2.368c-2.396,1.198-4.273,2.259-5.634,3.185v30.781h-3.674
	v-40.09h3.103l0.571,5.961h0.082c0.816-0.707,1.782-1.43,2.898-2.164c1.114-0.734,2.326-1.414,3.633-2.041
	c1.307-0.625,2.653-1.129,4.042-1.511c1.388-0.38,2.735-0.625,4.041-0.735V20.9L237.922,20.9L237.922,20.9z"/>
</svg>
